<?xml version="1.0" standalone="no"?>
<!DOCTYPE svg PUBLIC "-//W3C//DTD SVG 20010904//EN"
 "http://www.w3.org/TR/2001/REC-SVG-20010904/DTD/svg10.dtd">
<svg version="1.0" xmlns="http://www.w3.org/2000/svg"
 width="128.000000pt" height="65.000000pt" viewBox="0 0 128.000000 65.000000"
 preserveAspectRatio="xMidYMid meet">
<metadata>
Created by potrace 1.12, written by Peter Selinger 2001-2015
</metadata>
<g transform="translate(0.000000,65.000000) scale(0.100000,-0.100000)"
fill="#000000" stroke="none">
<path d="M318 619 c-18 -10 -24 -49 -11 -62 3 -4 7 -28 7 -54 1 -43 -2 -49
-26 -60 -17 -7 -28 -20 -28 -31 0 -19 29 -52 46 -52 5 0 9 -25 9 -55 l0 -55
-60 0 c-143 0 -225 109 -167 220 21 40 90 80 137 80 35 0 56 16 48 36 -8 21
-106 18 -151 -5 -148 -76 -150 -286 -2 -361 23 -11 71 -20 142 -25 l107 -7 3
94 3 93 78 3 77 3 0 -90 c0 -73 3 -90 16 -95 33 -13 44 13 44 100 0 84 0 84
26 84 l26 0 -3 -91 c-3 -79 -2 -93 14 -103 12 -8 22 -8 34 0 16 10 18 28 14
188 l-3 176 67 0 c72 0 99 -9 115 -40 11 -21 -1 -57 -24 -72 -17 -12 -61 -9
-74 4 -19 19 -62 -6 -62 -36 0 -34 34 -52 67 -37 13 6 39 11 57 11 101 0 140
147 52 201 -26 16 -50 19 -143 19 l-113 0 0 -85 c0 -84 0 -85 -25 -85 -25 0
-25 1 -25 85 l0 85 -30 0 -30 0 0 -85 0 -86 -77 3 -78 3 -3 45 c-2 25 2 62 9
84 12 35 11 40 -6 52 -22 16 -34 17 -57 3z"/>
<path d="M1052 579 c-110 -55 -144 -198 -72 -298 38 -51 89 -78 180 -92 62 -9
75 -9 87 4 34 34 -10 88 -52 65 -26 -15 -99 -4 -133 21 -40 28 -67 98 -57 148
10 57 68 109 130 118 69 9 77 13 73 32 -5 28 -101 29 -156 2z"/>
<path d="M552 139 c-22 -8 -30 -42 -14 -65 13 -19 40 -23 59 -8 17 13 16 14
-8 9 -34 -8 -58 17 -38 41 8 10 21 13 36 9 13 -3 23 -1 23 4 0 13 -33 19 -58
10z"/>
<path d="M638 139 c-27 -15 -24 -67 5 -78 49 -20 88 43 45 73 -26 19 -27 19
-50 5z m50 -37 c4 -28 -24 -40 -45 -19 -14 13 -14 19 -3 32 18 22 44 15 48
-13z"/>
<path d="M1192 134 c-28 -19 -28 -48 -1 -68 27 -19 63 -7 67 23 3 16 -2 21
-17 21 -12 0 -21 -4 -21 -10 0 -5 5 -10 12 -10 9 0 9 -3 1 -11 -18 -18 -45 -2
-41 23 2 18 9 23 31 21 29 -2 37 11 11 21 -20 8 -16 9 -42 -10z"/>
<path d="M10 131 c0 -6 4 -13 10 -16 6 -3 7 1 4 9 -7 18 -14 21 -14 7z"/>
<path d="M51 124 c0 -11 3 -14 6 -6 3 7 2 16 -1 19 -3 4 -6 -2 -5 -13z"/>
<path d="M131 124 c0 -11 3 -14 6 -6 3 7 2 16 -1 19 -3 4 -6 -2 -5 -13z"/>
<path d="M160 130 c-13 -8 -12 -10 3 -10 9 0 17 5 17 10 0 12 -1 12 -20 0z"/>
<path d="M190 129 c0 -5 5 -7 10 -4 6 3 10 8 10 11 0 2 -4 4 -10 4 -5 0 -10
-5 -10 -11z"/>
<path d="M245 130 c-3 -5 -1 -10 4 -10 6 0 11 5 11 10 0 6 -2 10 -4 10 -3 0
-8 -4 -11 -10z"/>
<path d="M292 124 c-7 -8 -8 -14 -3 -14 10 0 25 19 20 25 -2 1 -10 -3 -17 -11z"/>
<path d="M320 128 c0 -4 7 -8 15 -8 8 0 15 4 15 8 0 5 -7 9 -15 9 -8 0 -15 -4
-15 -9z"/>
<path d="M455 130 c6 -10 4 -12 -11 -6 -15 6 -17 5 -6 -5 9 -9 15 -10 23 -2 8
8 7 13 -2 18 -8 6 -10 4 -4 -5z"/>
<path d="M720 102 c0 -23 4 -42 9 -42 6 0 8 9 6 19 -3 14 2 18 21 17 16 -1 24
-7 24 -18 0 -23 17 -23 23 0 4 16 5 16 6 0 1 -17 21 -26 21 -10 0 5 12 12 27
18 22 7 31 5 50 -14 33 -33 63 -16 62 36 l-1 37 -8 -33 c-9 -40 -15 -46 -35
-39 -9 4 -15 19 -15 37 0 30 -14 41 -23 18 -4 -10 -6 -10 -6 0 -1 7 -15 12
-35 12 -28 0 -35 -4 -39 -22 -4 -22 -4 -22 -6 1 -1 23 -2 24 -21 6 -19 -17
-21 -17 -40 0 -20 18 -20 17 -20 -23z m150 13 c0 -8 -9 -15 -20 -15 -11 0 -20
7 -20 15 0 8 9 15 20 15 11 0 20 -7 20 -15z"/>
<path d="M995 127 c12 -10 16 -22 13 -40 -3 -15 -1 -27 3 -27 5 0 9 15 9 34 0
24 5 36 18 39 9 3 -1 5 -22 6 -36 1 -38 0 -21 -12z"/>
<path d="M1063 100 c0 -25 2 -35 4 -22 2 12 2 32 0 45 -2 12 -4 2 -4 -23z"/>
<path d="M1091 99 c1 -24 4 -34 6 -21 5 27 11 28 40 0 l23 -21 0 41 c0 23 -4
42 -10 42 -5 0 -10 -10 -10 -22 l0 -21 -25 23 -25 23 1 -44z"/>
<path d="M10 80 c0 -17 4 -18 24 -10 17 6 26 5 30 -3 2 -7 5 -5 5 5 1 9 7 18
14 21 6 2 -7 5 -30 5 -36 1 -43 -2 -43 -18z"/>
<path d="M100 80 c0 -20 19 -23 32 -5 9 12 0 25 -18 25 -8 0 -14 -9 -14 -20z"/>
<path d="M150 78 c0 -10 5 -16 10 -13 6 4 8 11 5 16 -4 5 -2 9 2 9 5 0 14 -9
21 -20 9 -15 17 -18 30 -12 9 5 25 8 34 7 9 -2 19 3 22 11 7 19 -23 31 -34 14
-5 -8 -10 -8 -14 -2 -3 5 -22 10 -41 10 -28 0 -35 -4 -35 -20z m70 4 c0 -13
-12 -22 -22 -16 -10 6 -1 24 13 24 5 0 9 -4 9 -8z"/>
<path d="M340 85 c0 -8 -4 -15 -10 -15 -5 0 -10 4 -10 8 0 13 -28 10 -33 -2
-3 -7 13 -12 39 -14 47 -2 47 -2 38 22 -8 20 -24 21 -24 1z"/>
<path d="M382 80 c0 -14 2 -19 5 -12 2 6 2 18 0 25 -3 6 -5 1 -5 -13z"/>
<path d="M405 82 c-8 -21 -6 -25 9 -19 7 3 18 1 24 -5 6 -6 12 -6 17 1 3 6 1
10 -6 9 -19 -5 -22 20 -2 25 10 3 6 4 -9 4 -15 -1 -30 -7 -33 -15z"/>
<path d="M477 93 c-11 -10 -8 -33 3 -33 6 0 10 6 10 14 0 8 6 17 13 19 8 4 6
6 -4 6 -9 1 -19 -2 -22 -6z"/>
</g>
</svg>
