<?xml version="1.0" encoding="UTF-8" standalone="no"?>
<!DOCTYPE svg PUBLIC "-//W3C//DTD SVG 1.0//EN" "http://www.w3.org/TR/2001/PR-SVG-20010719/DTD/svg10.dtd">
<svg width="50cm" height="21cm" viewBox="48 84 993 408" xmlns="http://www.w3.org/2000/svg" xmlns:xlink="http://www.w3.org/1999/xlink">
  <image x="79.275" y="206.961" width="40" height="40" xlink:href="file:///home/becker/content/SVG/github4.svg"/>
  <g>
    <rect style="fill: #ffffff" x="49.4" y="314.35" width="101.75" height="54"/>
    <rect style="fill: none; fill-opacity:0; stroke-width: 2; stroke: #000000" x="49.4" y="314.35" width="101.75" height="54"/>
    <text font-size="12.8" style="fill: #000000;text-anchor:middle;font-family:Lato;font-style:normal;font-weight:300" x="100.275" y="338">
      <tspan x="100.275" y="338">git commit</tspan>
      <tspan x="100.275" y="354">or pull request</tspan>
    </text>
  </g>
  <g>
    <rect style="fill: #ffffff" x="218.05" y="85.2" width="63.45" height="70"/>
    <rect style="fill: none; fill-opacity:0; stroke-width: 2; stroke: #000000" x="218.05" y="85.2" width="63.45" height="70"/>
    <text font-size="12.8" style="fill: #000000;text-anchor:middle;font-family:Lato;font-style:normal;font-weight:300" x="249.775" y="108.85">
      <tspan x="249.775" y="108.85">triggers</tspan>
      <tspan x="249.775" y="124.85">jenkins</tspan>
      <tspan x="249.775" y="140.85">build</tspan>
    </text>
  </g>
  <g>
    <rect style="fill: none; fill-opacity:0; stroke-width: 2; stroke: #ffa500" x="428.963" y="198.35" width="42" height="57.2212"/>
    <image x="429.963" y="199.35" width="40" height="55.2212" xlink:href="file:///home/becker/content/jenkinslogo.svg"/>
  </g>
  <g>
    <rect style="fill: #ffffff" x="380.538" y="298.35" width="138.85" height="86"/>
    <rect style="fill: none; fill-opacity:0; stroke-width: 2; stroke: #000000" x="380.538" y="298.35" width="138.85" height="86"/>
    <text font-size="12.8" style="fill: #000000;text-anchor:middle;font-family:Lato;font-style:normal;font-weight:300" x="449.963" y="322">
      <tspan x="449.963" y="322">code compiles</tspan>
      <tspan x="449.963" y="338">on build slave</tspan>
      <tspan x="449.963" y="354">(aginst declared</tspan>
      <tspan x="449.963" y="370">depdencencies)</tspan>
    </text>
  </g>
  <g>
    <rect style="fill: none; fill-opacity:0; stroke-width: 2; stroke-dasharray: 4; stroke: #00ff00" x="649.225" y="198.35" width="42" height="57.2212"/>
    <image x="650.225" y="199.35" width="40" height="55.2212" xlink:href="file:///home/becker/content/jenkinslogo.svg"/>
  </g>
  <g>
    <rect style="fill: #ffffff" x="411.913" y="85.2" width="76.1" height="70"/>
    <rect style="fill: none; fill-opacity:0; stroke-width: 2; stroke: #000000" x="411.913" y="85.2" width="76.1" height="70"/>
    <text font-size="12.8" style="fill: #000000;text-anchor:middle;font-family:Lato;font-style:normal;font-weight:300" x="449.963" y="108.85">
      <tspan x="449.963" y="108.85">Build</tspan>
      <tspan x="449.963" y="124.85">Promoted</tspan>
      <tspan x="449.963" y="140.85">(1)</tspan>
    </text>
  </g>
  <g>
    <rect style="fill: none; fill-opacity:0; stroke-width: 2; stroke: #00ff00" x="878.9" y="198.35" width="42" height="57.2212"/>
    <image x="879.9" y="199.35" width="40" height="55.2212" xlink:href="file:///home/becker/content/jenkinslogo.svg"/>
  </g>
  <g>
    <rect style="fill: #ffffff" x="626.9" y="85.2" width="76.1" height="70"/>
    <rect style="fill: none; fill-opacity:0; stroke-width: 2; stroke: #000000" x="626.9" y="85.2" width="76.1" height="70"/>
    <text font-size="12.8" style="fill: #000000;text-anchor:middle;font-family:Lato;font-style:normal;font-weight:300" x="664.95" y="108.85">
      <tspan x="664.95" y="108.85">Build</tspan>
      <tspan x="664.95" y="124.85">Promoted</tspan>
      <tspan x="664.95" y="140.85">(2)</tspan>
    </text>
  </g>
  <g>
    <rect style="fill: #ffffff" x="619.35" y="306.35" width="101.75" height="70"/>
    <rect style="fill: none; fill-opacity:0; stroke-width: 2; stroke: #000000" x="619.35" y="306.35" width="101.75" height="70"/>
    <text font-size="12.8" style="fill: #000000;text-anchor:middle;font-family:Lato;font-style:normal;font-weight:300" x="670.225" y="330">
      <tspan x="670.225" y="330">code executes</tspan>
      <tspan x="670.225" y="346">independently</tspan>
      <tspan x="670.225" y="362">on build slave</tspan>
    </text>
  </g>
  <image x="229.775" y="443.832" width="40" height="39.736" xlink:href="file:///home/becker/content/slack.png"/>
  <image x="229.775" y="200.7" width="40" height="55.2212" xlink:href="file:///home/becker/content/jenkinslogo.svg"/>
  <g>
    <rect style="fill: #ffffff" x="387.188" y="436.7" width="125.55" height="54"/>
    <rect style="fill: none; fill-opacity:0; stroke-width: 2; stroke: #000000" x="387.188" y="436.7" width="125.55" height="54"/>
    <text font-size="12.8" style="fill: #000000;text-anchor:middle;font-family:Lato;font-style:normal;font-weight:300" x="449.963" y="460.35">
      <tspan x="449.963" y="460.35">inform the team of</tspan>
      <tspan x="449.963" y="476.35">what's going on</tspan>
    </text>
  </g>
  <image x="652.9" y="444.7" width="40" height="39.736" xlink:href="file:///home/becker/content/slack.png"/>
  <g>
    <line style="fill: none; fill-opacity:0; stroke-width: 2; stroke: #000000" x1="119.275" y1="226.961" x2="216.776" y2="227.969"/>
    <polygon style="fill: #000000" points="216.724,232.969 226.775,228.073 216.828,222.97 "/>
    <polygon style="fill: none; fill-opacity:0; stroke-width: 2; stroke: #000000" points="216.724,232.969 226.775,228.073 216.828,222.97 "/>
  </g>
  <g>
    <line style="fill: none; fill-opacity:0; stroke-width: 2; stroke: #000000" x1="269.775" y1="228.311" x2="418.963" y2="227.053"/>
    <polygon style="fill: #000000" points="419.005,232.053 428.963,226.969 418.921,222.053 "/>
    <polygon style="fill: none; fill-opacity:0; stroke-width: 2; stroke: #000000" points="419.005,232.053 428.963,226.969 418.921,222.053 "/>
  </g>
  <g>
    <line style="fill: none; fill-opacity:0; stroke-width: 2; stroke: #000000" x1="469.963" y1="226.961" x2="639.225" y2="226.961"/>
    <polygon style="fill: #000000" points="639.225,231.961 649.225,226.961 639.225,221.961 "/>
    <polygon style="fill: none; fill-opacity:0; stroke-width: 2; stroke: #000000" points="639.225,231.961 649.225,226.961 639.225,221.961 "/>
  </g>
  <g>
    <line style="fill: none; fill-opacity:0; stroke-width: 2; stroke: #000000" x1="690.225" y1="226.961" x2="868.9" y2="226.961"/>
    <polygon style="fill: #000000" points="868.9,231.961 878.9,226.961 868.9,221.961 "/>
    <polygon style="fill: none; fill-opacity:0; stroke-width: 2; stroke: #000000" points="868.9,231.961 878.9,226.961 868.9,221.961 "/>
  </g>
  <g>
    <line style="fill: none; fill-opacity:0; stroke-width: 2; stroke: #000000" x1="919.9" y1="226.961" x2="1001.12" y2="167.498"/>
    <polygon style="fill: #000000" points="1004.08,171.532 1009.19,161.591 998.171,163.463 "/>
    <polygon style="fill: none; fill-opacity:0; stroke-width: 2; stroke: #000000" points="1004.08,171.532 1009.19,161.591 998.171,163.463 "/>
  </g>
  <g>
    <line style="fill: none; fill-opacity:0; stroke-width: 2; stroke: #000000" x1="919.9" y1="226.961" x2="1007.26" y2="272.882"/>
    <polygon style="fill: #000000" points="1004.94,277.308 1016.11,277.535 1009.59,268.456 "/>
    <polygon style="fill: none; fill-opacity:0; stroke-width: 2; stroke: #000000" points="1004.94,277.308 1016.11,277.535 1009.59,268.456 "/>
  </g>
  <g>
    <polyline style="fill: none; fill-opacity:0; stroke-width: 3; stroke-dasharray: 4; stroke: #000000" points="100.275,314.35 99.4456,258.459 "/>
    <polygon style="fill: #000000" points="104.445,258.385 99.2973,248.46 94.4462,258.534 "/>
    <polygon style="fill: none; fill-opacity:0; stroke-width: 3; stroke: #000000" points="104.445,258.385 99.2973,248.46 94.4462,258.534 "/>
  </g>
  <g>
    <path style="fill: none; fill-opacity:0; stroke-width: 3; stroke-dasharray: 20; stroke: #000000" d="M 206.594,120.565 A 122.176,122.176 0 0 0 99.275,206.961"/>
    <polygon style="fill: #000000" points="206.476,125.026 216.55,120.177 206.627,115.027 "/>
    <polygon style="fill: none; fill-opacity:0; stroke-width: 3; stroke: #000000" points="206.476,125.026 216.55,120.177 206.627,115.027 "/>
  </g>
  <g>
    <polyline style="fill: none; fill-opacity:0; stroke-width: 3; stroke-dasharray: 4; stroke: #000000" points="249.775,255.921 249.775,432.332 "/>
    <polygon style="fill: #000000" points="244.775,432.332 249.775,442.332 254.775,432.332 "/>
    <polygon style="fill: none; fill-opacity:0; stroke-width: 3; stroke: #000000" points="244.775,432.332 249.775,442.332 254.775,432.332 "/>
  </g>
  <g>
    <polyline style="fill: none; fill-opacity:0; stroke-width: 3; stroke-dasharray: 4; stroke: #000000" points="269.775,463.7 375.688,463.7 "/>
    <polygon style="fill: #000000" points="375.688,468.7 385.688,463.7 375.688,458.7 "/>
    <polygon style="fill: none; fill-opacity:0; stroke-width: 3; stroke: #000000" points="375.688,468.7 385.688,463.7 375.688,458.7 "/>
  </g>
  <g>
    <polyline style="fill: none; fill-opacity:0; stroke-width: 3; stroke-dasharray: 4; stroke: #000000" points="512.738,463.7 641.4,464.497 "/>
    <polygon style="fill: #000000" points="641.369,469.497 651.4,464.559 641.431,459.497 "/>
    <polygon style="fill: none; fill-opacity:0; stroke-width: 3; stroke: #000000" points="641.369,469.497 651.4,464.559 641.431,459.497 "/>
  </g>
  <g>
    <path style="fill: none; fill-opacity:0; stroke-width: 3; stroke-dasharray: 20; stroke: #000000" d="M 400.439,119.763 A 178.717,178.717 0 0 0 249.775,200.7"/>
    <polygon style="fill: #000000" points="400.09,124.381 410.416,120.095 400.792,114.405 "/>
    <polygon style="fill: none; fill-opacity:0; stroke-width: 3; stroke: #000000" points="400.09,124.381 410.416,120.095 400.792,114.405 "/>
  </g>
  <g>
    <path style="fill: none; fill-opacity:0; stroke-width: 3; stroke-dasharray: 20; stroke: #000000" d="M 615.438,119.497 A 187.13,187.13 0 0 0 458,197"/>
    <polygon style="fill: #000000" points="614.99,124.123 625.406,120.062 615.908,114.165 "/>
    <polygon style="fill: none; fill-opacity:0; stroke-width: 3; stroke: #000000" points="614.99,124.123 625.406,120.062 615.908,114.165 "/>
  </g>
  <g>
    <rect style="fill: #ffffff" x="862.9" y="85.7" width="76.1" height="70"/>
    <rect style="fill: none; fill-opacity:0; stroke-width: 2; stroke: #000000" x="862.9" y="85.7" width="76.1" height="70"/>
    <text font-size="12.8" style="fill: #000000;text-anchor:middle;font-family:Lato;font-style:normal;font-weight:300" x="900.95" y="109.35">
      <tspan x="900.95" y="109.35">Build</tspan>
      <tspan x="900.95" y="125.35">Promoted</tspan>
      <tspan x="900.95" y="141.35">(2)</tspan>
    </text>
  </g>
  <g>
    <polyline style="fill: none; fill-opacity:0; stroke-width: 3; stroke-dasharray: 4; stroke: #000000" points="449.963,254.571 449.963,286.85 "/>
    <polygon style="fill: #000000" points="444.963,286.85 449.963,296.85 454.963,286.85 "/>
    <polygon style="fill: none; fill-opacity:0; stroke-width: 3; stroke: #000000" points="444.963,286.85 449.963,296.85 454.963,286.85 "/>
  </g>
  <g>
    <polyline style="fill: none; fill-opacity:0; stroke-width: 3; stroke-dasharray: 4; stroke: #000000" points="670.225,254.571 670.225,294.85 "/>
    <polygon style="fill: #000000" points="665.225,294.85 670.225,304.85 675.225,294.85 "/>
    <polygon style="fill: none; fill-opacity:0; stroke-width: 3; stroke: #000000" points="665.225,294.85 670.225,304.85 675.225,294.85 "/>
  </g>
  <g>
    <path style="fill: none; fill-opacity:0; stroke-width: 3; stroke-dasharray: 20; stroke: #000000" d="M 851.426,120.1 A 232.245,232.245 0 0 0 670.225,199.35"/>
    <polygon style="fill: #000000" points="851.049,124.8 861.404,120.585 851.819,114.83 "/>
    <polygon style="fill: none; fill-opacity:0; stroke-width: 3; stroke: #000000" points="851.049,124.8 861.404,120.585 851.819,114.83 "/>
  </g>
  <text font-size="12.8" style="fill: #000000;text-anchor:start;font-family:Lato;font-style:normal;font-weight:300" x="1018" y="154">
    <tspan x="1018" y="154">??? </tspan>
  </text>
  <text font-size="12.8" style="fill: #000000;text-anchor:start;font-family:Lato;font-style:normal;font-weight:300" x="1023.9" y="286.35">
    <tspan x="1023.9" y="286.35">???</tspan>
  </text>
</svg>
