<?xml version="1.0" encoding="UTF-8" standalone="no"?>
<!-- Created with Inkscape (http://www.inkscape.org/) -->

<svg
   xmlns:dc="http://purl.org/dc/elements/1.1/"
   xmlns:cc="http://creativecommons.org/ns#"
   xmlns:rdf="http://www.w3.org/1999/02/22-rdf-syntax-ns#"
   xmlns:svg="http://www.w3.org/2000/svg"
   xmlns="http://www.w3.org/2000/svg"
   xmlns:sodipodi="http://sodipodi.sourceforge.net/DTD/sodipodi-0.dtd"
   xmlns:inkscape="http://www.inkscape.org/namespaces/inkscape"
   id="svg17624"
   version="1.1"
   inkscape:version="0.48.2 r9819"
   width="360.62802"
   height="467.91046"
   xml:space="preserve"
   sodipodi:docname="film crew.svg"><metadata
     id="metadata17630"><rdf:RDF><cc:Work
         rdf:about=""><dc:format>image/svg+xml</dc:format><dc:type
           rdf:resource="http://purl.org/dc/dcmitype/StillImage" /><dc:title></dc:title></cc:Work></rdf:RDF></metadata><defs
     id="defs17628"><inkscape:perspective
       sodipodi:type="inkscape:persp3d"
       inkscape:vp_x="0 : 0.5 : 1"
       inkscape:vp_y="0 : 1000 : 0"
       inkscape:vp_z="1 : 0.5 : 1"
       inkscape:persp3d-origin="0.5 : 0.33333333 : 1"
       id="perspective17632" /><clipPath
       clipPathUnits="userSpaceOnUse"
       id="clipPath17642"><path
         d="m -2,710 501,0 0,-711 -501,0 0,711 z"
         id="path17644"
         inkscape:connector-curvature="0" /></clipPath><clipPath
       clipPathUnits="userSpaceOnUse"
       id="clipPath17648"><path
         d="m 0,708.06 498,0 0,-708 -498,0 0,708 z"
         id="path17650"
         inkscape:connector-curvature="0" /></clipPath><clipPath
       clipPathUnits="userSpaceOnUse"
       id="clipPath17798"><path
         d="m -2,710 501,0 0,-711 -501,0 0,711 z"
         id="path17800"
         inkscape:connector-curvature="0" /></clipPath><clipPath
       clipPathUnits="userSpaceOnUse"
       id="clipPath17804"><path
         d="m 0,708.06 498,0 0,-708 -498,0 0,708 z"
         id="path17806"
         inkscape:connector-curvature="0" /></clipPath><clipPath
       id="Clip0"><path
         inkscape:connector-curvature="0"
         d="m 0,0 212.597,0 0,269.292 L 0,269.292 0,0 z"
         transform="translate(0.923828,0.879883)"
         id="path7" /></clipPath><clipPath
       id="Clip0-8"><path
         inkscape:connector-curvature="0"
         d="m 0,0 170.079,0 0,113.386 L 0,113.386 0,0 z"
         transform="translate(0.0986328,0.822266)"
         id="path7-8" /></clipPath><clipPath
       id="Clip0-1"><path
         inkscape:connector-curvature="0"
         d="m 0,0 287.009,0 0,159.449 L 0,159.449 0,0 z"
         transform="translate(0.396484,0.267578)"
         id="path7-7" /></clipPath><clipPath
       id="Clip0-17"><path
         inkscape:connector-curvature="0"
         d="m 0,0 340.157,0 0,170.079 L 0,170.079 0,0 z"
         transform="translate(0.289063,0.774414)"
         id="path7-4" /></clipPath><clipPath
       id="Clip0-174"><path
         inkscape:connector-curvature="0"
         d="m 0,0 269.291,0 0,85.039 L 0,85.039 0,0 z"
         transform="translate(0.899414,0.480469)"
         id="path7-0" /></clipPath><clipPath
       id="Clip0-4"><path
         inkscape:connector-curvature="0"
         d="m 0,0 269.291,0 0,85.039 L 0,85.039 0,0 z"
         transform="translate(0.222656,0.743164)"
         id="path7-1" /></clipPath></defs><sodipodi:namedview
     pagecolor="#ffffff"
     bordercolor="#666666"
     borderopacity="1"
     objecttolerance="10"
     gridtolerance="10"
     guidetolerance="10"
     inkscape:pageopacity="0"
     inkscape:pageshadow="2"
     inkscape:window-width="1280"
     inkscape:window-height="1004"
     id="namedview17626"
     showgrid="false"
     inkscape:zoom="1.0853633"
     inkscape:cx="205.2059"
     inkscape:cy="118.24761"
     inkscape:window-x="-8"
     inkscape:window-y="-8"
     inkscape:window-maximized="1"
     inkscape:current-layer="g17634"
     fit-margin-top="0"
     fit-margin-left="0"
     fit-margin-right="0"
     fit-margin-bottom="0"
     showguides="true"
     inkscape:guide-bbox="true" /><g
     id="g17634"
     inkscape:groupmode="layer"
     inkscape:label="GG1999P002"
     transform="matrix(1.25,0,0,-1.25,570.69351,-443.52204)"><path
       inkscape:connector-curvature="0"
       style="fill:#ef7c23;fill-rule:nonzero;stroke:none"
       d="m -172.35328,-488.68004 c 5.735,-5.734 5.734,-15.03 0,-20.764 l -129.571,-129.563 c -5.734,-5.733 -15.03,-5.733 -20.765,0 l -129.5656,129.563 c -5.7334,5.734 -5.7334,15.03 9.6e-4,20.764 l 129.57064,129.56163 c 5.735,5.73437 15.03,5.73437 20.765,0 l 129.565,-129.56163 z"
       id="path11" /><path
       inkscape:connector-curvature="0"
       style="fill:#000000;fill-rule:nonzero;stroke:none"
       d="m -450.00781,-506.68977 c -4.09571,4.095 -4.09571,10.736 0,14.832 l 130.28629,130.2833 c 4.096,4.0957 10.736,4.0957 14.833,0 l 130.288,-130.2833 c 4.097,-4.096 4.097,-10.737 0,-14.832 l -130.285,-130.283 c -4.097,-4.096 -10.737,-4.096 -14.833,0 l -130.28929,130.283 z"
       id="path13" /><path
       inkscape:connector-curvature="0"
       style="fill:#ef7c23;fill-rule:nonzero;stroke:none"
       d="m -446.19925,-502.71977 c -1.99313,1.992 -1.99313,5.222 0,7.215 l 130.28687,130.28287 c 1.992,1.99313 5.222,1.99313 7.215,0 l 130.289,-130.28287 c 1.993,-1.993 1.993,-5.223 8e-4,-7.215 l -130.287,-130.284 c -1.993,-1.993 -5.223,-1.993 -7.215,0 l -130.28967,130.284 z"
       id="path15" /><path
       inkscape:connector-curvature="0"
       style="fill:#000000;fill-rule:nonzero;stroke:none"
       d="m -337.10775,-580.1085 c 0,13.699 11.105,24.804 24.804,24.804 13.698,0 24.803,-11.105 24.803,-24.804 0,-13.698 -11.105,-24.803 -24.803,-24.803 -13.699,0 -24.804,11.105 -24.804,24.803 z"
       id="path17" /><path
       inkscape:connector-curvature="0"
       style="fill:#000000;fill-rule:nonzero;stroke:none"
       d="m -312.30375,-395.7141 c 17.612,0 31.89,-14.3028 31.89,-31.8897 0,-17.5752 -26.504,-116.9293 -26.504,-116.9293 l -10.773,0 c 0,0 -26.504,99.3541 -26.504,116.9293 0,17.5869 14.278,31.8897 31.891,31.8897 z"
       id="path19" /><path
       inkscape:connector-curvature="0"
       style="fill:#ef7c23;fill-rule:nonzero;stroke:none"
       d="m -446.95321,-658.27979 c 0,7.8271 6.34571,14.1728 14.1729,14.1728 l 240.9461,0 c 7.828,0 14.172,-6.3457 14.172,-14.1728 l 0,-56.6934 c 0,-7.8271 -6.344,-14.1728 -14.172,-14.1728 l -240.9461,0 c -7.82719,0 -14.1729,6.3457 -14.1729,14.1728 l 0,56.6934 z"
       id="path11-1" /><path
       inkscape:connector-curvature="0"
       style="fill:#000000;fill-rule:nonzero;stroke:none"
       d="m -444.11825,-658.27987 c 0,6.26175 5.07617,11.3389 11.3379,11.3389 l 240.9461,0 c 6.261,0 11.338,-5.07715 11.338,-11.3389 l 0,-56.6934 c 0,-6.2616 -5.077,-11.33871 -11.338,-11.33871 l -240.9461,0 c -6.26173,0 -11.3379,5.07711 -11.3379,11.33871 l 0,56.6934 z"
       id="path13-7" /><path
       inkscape:connector-curvature="0"
       style="fill:#ef7c23;fill-rule:nonzero;stroke:none"
       d="m -439.8663,-658.27982 c 0,3.9131 3.17287,7.08592 7.08687,7.08592 l 240.94513,0 c 3.914,0 7.086,-3.17282 7.086,-7.08592 l 0,-56.69338 c 0,-3.914 -3.172,-7.0859 -7.086,-7.0859 l -240.94513,0 c -3.914,0 -7.08687,3.1719 -7.08687,7.0859 l 0,56.69338 z"
       id="path15-4" /><g
       transform="matrix(1,0,0,-1,-447.17587,-643.36382)"
       id="Background"
       style="fill:#000000"><g
         id="Group1"
         clip-path="url(#Clip0-4)"
         style="fill:#000000"><path
           inkscape:connector-curvature="0"
           style="fill:#000000;fill-rule:nonzero;stroke:none"
           d="m 0,0 0,35.4336 17.7158,0 0,-4.9961 -12.8623,0 0,-11.6933 7.5469,0 0,-4.8535 -7.5469,0 0,-8.8946 12.2959,0 L 17.1494,0 0,0 z"
           transform="translate(21.334,25.5146)"
           id="path17-9" /><path
           inkscape:connector-curvature="0"
           style="fill:#000000;fill-rule:nonzero;stroke:none"
           d="m 0,0 0,35.4336 5.0312,0 0,-20.1611 6.5557,20.1611 6.5186,-20.1611 0,20.1611 4.9257,0 L 23.0312,0 17.6807,0 11.5869,19.0284 5.0312,0 0,0 z"
           transform="translate(45.0381,25.5146)"
           id="path19-4" /><path
           inkscape:connector-curvature="0"
           style="fill:#000000;fill-rule:nonzero;stroke:none"
           d="m 0,0 0,35.4336 17.7168,0 0,-4.9961 -12.8623,0 0,-11.6933 7.5468,0 0,-4.8535 -7.5468,0 0,-8.8946 12.2949,0 L 17.1494,0 0,0 z"
           transform="translate(75.5098,25.5146)"
           id="path21" /><path
           inkscape:connector-curvature="0"
           style="fill:#000000;fill-rule:evenodd;stroke:none"
           d="m 14.3852,18.1778 c 1.559,-0.543 2.823,-1.6885 3.791,-3.4375 0.875,-1.6055 1.311,-3.3184 1.311,-5.1377 0,-2.3389 -0.72,-4.4873 -2.161,-6.4483 C 15.7912,1.0518 13.9722,0.001 11.8692,0 L 0,0 l 0,35.4336 4.8892,0 0,-16.4404 4.606,0 4.713,16.4404 5.279,0 -5.102,-17.2558 z m -3.295,-4.2871 -6.201,0 0,-8.8233 6.236,0 c 2.126,0 3.189,1.4532 3.189,4.3584 0,1.1817 -0.259,2.1846 -0.78,3.0117 -0.59,0.9688 -1.404,1.4532 -2.444,1.4532 z"
           transform="translate(99.2148,25.5146)"
           id="path23" /><path
           inkscape:connector-curvature="0"
           style="fill:#000000;fill-rule:nonzero;stroke:none"
           d="m 14.351,9.1768 5.137,0 C 19.488,6.626 18.556,4.4639 16.689,2.6934 14.847,0.8975 12.649,0 10.099,0 6.059,0 3.236,2.1963 1.63,6.5899 0.543,9.5196 0,13.6299 0,18.9209 c 0,4.7246 0.566,8.5518 1.7,11.4805 1.678,4.2754 4.478,6.4131 8.399,6.4131 1.961,0 3.72,-0.4844 5.279,-1.4522 1.418,-0.874 2.444,-1.9843 3.083,-3.331 0.637,-1.3701 0.956,-3.4014 0.956,-6.0947 l 0,-7.0157 -9.07,0 0,5.1026 4.252,0 0,4.0039 c 0,0.9922 -0.496,1.8896 -1.489,2.6924 -0.968,0.8037 -1.972,1.205 -3.011,1.205 -3.355,0 -5.033,-4.039 -5.033,-12.1181 l 0,-2.126 c 0,-8.4092 1.678,-12.6143 5.033,-12.6143 1.298,0 2.326,0.3672 3.082,1.0987 0.78,0.709 1.17,1.7129 1.17,3.0117 z"
           transform="translate(124.832,24.8066)"
           id="path25" /><path
           inkscape:connector-curvature="0"
           style="fill:#000000;fill-rule:nonzero;stroke:none"
           d="m 0,0 0,35.4336 17.717,0 0,-4.9961 -12.863,0 0,-11.6933 7.547,0 0,-4.8535 -7.547,0 0,-8.8946 12.295,0 L 17.149,0 0,0 z"
           transform="translate(151.796,25.5146)"
           id="path27" /><path
           inkscape:connector-curvature="0"
           style="fill:#000000;fill-rule:nonzero;stroke:none"
           d="m 0,0 0,35.4336 4.889,0 0,-23.2793 10.559,23.2793 4.039,0 0,-35.4336 -5.137,0 0,20.4805 L 4.889,0 0,0 z"
           transform="translate(175.501,25.5146)"
           id="path29" /><path
           inkscape:connector-curvature="0"
           style="fill:#000000;fill-rule:nonzero;stroke:none"
           d="m 14.528,26.7168 c 0,1.5118 -0.39,2.752 -1.169,3.7198 -0.779,0.9687 -1.748,1.4531 -2.905,1.4531 -3.663,0 -5.493,-4.7246 -5.493,-14.1729 0,-3.0478 0.272,-5.6103 0.815,-7.6894 0.874,-3.3067 2.374,-4.961 4.5,-4.961 1.134,0 2.126,0.4493 2.976,1.3467 0.851,0.8975 1.276,1.8545 1.276,2.8701 l 4.926,0 C 19.454,6.5196 18.591,4.2872 16.867,2.587 15.142,0.8623 12.945,0 10.276,0 3.425,0 0,5.9053 0,17.7168 c 0,5.3858 0.52,9.5196 1.559,12.4014 1.631,4.4648 4.571,6.6963 8.823,6.6963 2.717,0 4.913,-0.8975 6.591,-2.6924 1.677,-1.8193 2.516,-4.2871 2.516,-7.4053 l -4.961,0 z"
           transform="translate(202.606,24.8066)"
           id="path31" /><path
           inkscape:connector-curvature="0"
           style="fill:#000000;fill-rule:nonzero;stroke:none"
           d="m 0,0 8.823,19.3467 0,16.0869 5.209,0 0,-16.0869 L 22.359,0 17.008,0 11.338,12.6143 5.528,0 0,0 z"
           transform="translate(226.028,25.5146)"
           id="path33" /></g></g></g></svg>